<?xml version="1.0" standalone="no"?><!DOCTYPE svg PUBLIC "-//W3C//DTD SVG 1.1//EN" "http://www.w3.org/Graphics/SVG/1.1/DTD/svg11.dtd"><svg t="1669356922694" class="icon" viewBox="0 0 1024 1024" version="1.1" xmlns="http://www.w3.org/2000/svg" p-id="4405" xmlns:xlink="http://www.w3.org/1999/xlink" width="200" height="200"><path d="M172 672a340 340 0 0 0 340 340V332a340 340 0 0 0-340 340z" fill="#39BDBD" p-id="4406"></path><path d="M852 672a340 340 0 0 0-331.48-339.8H512V1012c2.84 0 5.68 0 8.52-0.2A340 340 0 0 0 852 672z" fill="#00537D" p-id="4407"></path><path d="M793.32 861.68c-27.16 37.4-75.28 67.08-134.72 85.48 28.68-37.04 55.24-89.56 63.36-161.36a356.24 356.24 0 0 0 77.4-44c4.88-3.72 9.2-7.2 13.24-10.68a214.4 214.4 0 0 0 39-43.48c0.24-5.2 0.4-10.48 0.4-15.76a342.88 342.88 0 0 0-2.64-41.8c-6.24 28.84-24 56.84-52.28 81.4-4.24 3.72-8.4 7.12-12.6 10.32a316.8 316.8 0 0 1-60.48 35.64c0.24-5.72 0.4-11.48 0.4-17.44 0-80.6-13.88-143.16-33.64-191.4 43.72-24.4 73.48-57.8 81.32-95.24a337.2 337.2 0 0 0-23.6-25.36c0 1.88 0.24 3.72 0.24 5.56 0 38.48-27.4 69.96-68 92.4a305.16 305.16 0 0 0-60-84 260.68 260.68 0 0 0-80-54 224.6 224.6 0 0 1 102.4-29.4 336.8 336.8 0 0 0-55-17.72A246.84 246.84 0 0 0 524 367.6v41.4c20 6.88 49.12 21.96 79.6 52a278.6 278.6 0 0 1 53.44 76 362.28 362.28 0 0 1-133.04 27.24v25.52c56-1.04 103.08-12 143.52-29.8 20.44 50.88 31.24 111.52 31.24 180 0 9.64-0.72 19.08-1.4 28.36A522.52 522.52 0 0 1 524 799.2v25.6a559.28 559.28 0 0 0 170.48-28.8c-9.64 64.72-36.72 119.12-80.52 162.16A502.92 502.92 0 0 1 524 968v25.8a480.76 480.76 0 0 0 51.16-3.32 267.08 267.08 0 0 1-35.8 20.48 338.56 338.56 0 0 0 68.64-12.92c6.24-4.96 12.6-10.36 19-16.32a453.92 453.92 0 0 0 56.68-16.44 341.64 341.64 0 0 0 111.32-105l-1.04 0.44z" fill="#48D7D9" p-id="4408"></path><path d="M524 992V332.4h-12c-4 0-8 0-12 0.32v32a170.04 170.04 0 0 0-56-25.36 340.8 340.8 0 0 0-65.44 20.4c32-2.24 72.92 1.72 108 27.28a258.52 258.52 0 0 0-83.4 55.36 304 304 0 0 0-57.96 80c-36-21.16-61.08-50.48-61.08-88.4a72.32 72.32 0 0 1 1.68-15.4 351.4 351.4 0 0 0-26.56 26.36c4.48 41.24 33.68 75.16 75.56 100-20.68 48.84-35.36 112.72-35.36 195.68 0 5.28 0 10.4 0.28 15.48a312.96 312.96 0 0 1-54.96-32.8c-4.52-3.4-8.8-6.84-12.76-10.24-33.6-29.04-52.56-62.36-55.32-96.84A340.32 340.32 0 0 0 172 672v8.64A211.6 211.6 0 0 0 216.76 732c4 3.56 8.6 7.12 13.24 10.64a354.28 354.28 0 0 0 72 41.08c7.68 71.24 33.52 123.56 61.72 160.76-49.52-16.44-90.72-41-117.76-71.64 0 0-11.64-8.92-17.24-13.36a340.72 340.72 0 0 0 102.32 100A429.68 429.68 0 0 0 395.2 980a302.76 302.76 0 0 0 20.8 18 337.32 337.32 0 0 0 68.6 12.64 271.48 271.48 0 0 1-36.64-21.24 494.16 494.16 0 0 0 52 4v18.16c4 0 8 0.32 12 0.32 2.84 0 5.68 0 8.52-0.2h3.48z m-24-24.36a502.44 502.44 0 0 1-91.4-10.84c-34.52-34.48-68-86.48-79.16-162.32a556 556 0 0 0 170.56 30.28z m0-168.48a518.76 518.76 0 0 1-173.72-32.56c-0.56-8.6-1.08-17.44-1.08-26.6 0-70.2 11.4-132 32.84-183.72a372.52 372.52 0 0 0 141.96 33.16z m0-235.16a373.28 373.28 0 0 1-131.64-30.24 277.76 277.76 0 0 1 52-72.52C451.08 430.88 480 416 500 408.96z" fill="#ECFFD7" p-id="4409"></path><path d="M984.4 193.56L756.2 60A40 40 0 0 0 716 60c-0.56 0.32-1.12 0.64-1.64 1l-36 22.96a40 40 0 0 0-18.36 33.52v125.2A80 80 0 0 0 700.2 312l117.92 67.6L772 445.04l44-28 18.6-28L928 442.72a40 40 0 0 0 48-6.32v0.64l26.96-16.84 1.08-0.56c1.08-0.64 2.08-1.36 3.08-2.08l0.88-0.52a40 40 0 0 0 16-32V262.6a80 80 0 0 0-39.6-69.04z" fill="#00537D" p-id="4410"></path><path d="M948.4 216.52l-228-133.56a40 40 0 0 0-40 0c-0.56 0.32-1.12 0.64-1.64 1a40 40 0 0 0-18.76 33.52v125.2A80 80 0 0 0 700.2 312L772 353.24v92l46.12-65.36L928 442.72a40 40 0 0 0 60-34.72V285.56a80 80 0 0 0-39.6-69.04z" fill="#39BDBD" p-id="4411"></path><path d="M720 212v32l28 16v-32l-28-16zM764 240v32l28 16v-32l-28-16zM720 160v32l28 16v-32l-28-16zM764 184v32l28 16v-32l-28-16zM808 264v32l28 16v-32l-28-16zM808 208v32l28 16v-32l-28-16zM852 288v32l28 16v-32l-28-16zM896 316v32l28 16v-32l-28-16zM852 236v32l28 16v-32l-28-16zM896 260v32l28 16v-32l-28-16z" fill="#ECFFD7" p-id="4412"></path><path d="M436 632l-104 48 60-36 44-12z" fill="#FF9C1A" p-id="4413"></path><path d="M356 752l52 4 40 52 60-32 12 68 52 28 8-56 40-4 52 52 24-40-40-68v-56l40-16-24-72h-56l-36-56-8-68-56-28-7.48 57.08-39.8 4.96L416 468l-24 44 44 60.84V632l-44 12 24 76z m136-115.12c0-24.88 12-39.44 29.6-39.44 34.6 0 73.96 53.24 73.96 98.52 0 24.84-12 39.4-29.64 39.4-34.44 0-73.92-53.24-73.92-98.48z" fill="#85273D" p-id="4414"></path><path d="M696 824l-56 32-28 40 60-32 24-40z" fill="#9E1E23" p-id="4415"></path><path d="M512 908l60-36 8-56-60 28-8 64z" fill="#85273D" p-id="4416"></path><path d="M656 756l-56 32 40 68 56-32-40-68z" fill="#E64E17" p-id="4417"></path><path d="M656 700l-56 36v52l56-32v-56z" fill="#85273D" p-id="4418"></path><path d="M696 684l-56 32-40 20 56-36 40-16z" fill="#7AB2BC" p-id="4419"></path><path d="M672 612l-60 36 28 68 56-32-24-72z" fill="#FFCC00" p-id="4420"></path><path d="M616 612l-56 28 52 8 60-36h-56zM580 556l-60 32-8-68 60-32 8 68zM416 468l-56 36 48.36 50.4 60.36-32.36L416 468z" fill="#E64E17" p-id="4421"></path><path d="M580 556l-60 32 40 52 56-28-36-56zM508.52 517.08l-59.28 33.08-40.88 4.24 60.36-32.36 39.8-4.96z" fill="#85273D" p-id="4422"></path><path d="M560 640l52 8 28 68-40 20v52l40 68-28 40-52-60-40 8-8 64-52-32-12-68-40-52-52-4-24-72 44-20v-56l-44-60 28-40 48.48 50.4 40.8-4.24L456 492l56 28 8 68z m-97.52-9.48c-17.52 0-29.64 14.56-29.64 39.4 0 45.28 39.36 98.52 73.96 98.52 17.52 0 29.64-14.52 29.64-39.4 0-45.28-39.36-98.52-73.96-98.52z" fill="#FF9C1A" p-id="4423"></path><path d="M516 460l-60 32 56 28 60-32-56-28z" fill="#FFCC00" p-id="4424"></path><path d="M345.52 35.76L308 12a40 40 0 0 0-40 0L39.6 145.56A80 80 0 0 0 0 214.6v122.44a40 40 0 0 0 16 32 44.92 44.92 0 0 0 5.04 3.16L48 389.04v-0.64a40 40 0 0 0 48 6.32l93.52-53.6 18.6 28 44 28-46.24-65.44L324 264a80 80 0 0 0 40-69.32v-125.2a40 40 0 0 0-18.48-33.72z" fill="#00537D" p-id="4425"></path><path d="M345.52 35.76c-0.52-0.36-1.08-0.68-1.64-1a40 40 0 0 0-40 0.2l-228 133.56A80 80 0 0 0 36 237.56V360a40 40 0 0 0 60 34.72l110-63.04L252 397.04v-92L324 264a80 80 0 0 0 40-69.32v-125.2a40 40 0 0 0-18.48-33.72z" fill="#FF9C1A" p-id="4426"></path><path d="M304 171.72v32l-28 16v-32l28-16zM260 199.72v32l-28 16v-32l28-16zM304 119.72v32l-28 16v-32l28-16zM260 143.72v32l-28 16v-32l28-16zM216 223.72v32l-28 16v-32l28-16zM216 167.72v32l-28 16v-32l28-16zM172 247.72v32l-28 16v-32l28-16zM128 275.72v32l-28 16v-32l28-16zM172 195.72v32l-28 16v-32l28-16zM128 219.72v32l-28 16v-32l28-16z" fill="#ECFFD7" p-id="4427"></path></svg>